<svg width="210" height="325" viewBox="0 0 210 325" fill="none" xmlns="http://www.w3.org/2000/svg">
<path fill-rule="evenodd" clip-rule="evenodd" d="M128.633 2.34925L104.662 4.63326L101.883 7.74325C97.7722 12.3443 98.2022 15.6343 103.817 22.5323C106.408 25.7163 124.275 46.9963 143.521 69.8213C162.767 92.6463 183.226 116.946 188.986 123.821C205.386 143.398 209.339 147.92 209.72 147.54C209.914 147.345 208.541 141.591 206.667 134.753C204.794 127.916 196.224 96.0283 187.623 63.8933C179.022 31.7573 171.551 4.65526 171.022 3.66626C168.578 -0.900744 164.182 -1.03775 128.633 2.34925ZM51.5952 66.7443C38.4012 74.4023 25.5872 81.9393 23.1212 83.4943C18.0342 86.7013 16.2232 90.3763 17.6622 94.5713C18.8082 97.9143 18.8832 97.9523 84.6052 128.376C111.555 140.852 144.136 155.962 157.008 161.954C169.879 167.947 180.52 172.73 180.654 172.585C180.788 172.44 171.451 161.071 159.906 147.321C148.36 133.571 131.194 113.129 121.759 101.893C112.324 90.6583 99.6552 75.5013 93.6052 68.2113C83.8892 56.5033 79.7232 52.8213 76.1962 52.8213C75.8602 52.8213 64.7902 59.0863 51.5952 66.7443ZM34.3712 149.347C33.1722 150.187 28.7052 155.925 24.4452 162.097C20.1842 168.27 12.9642 178.658 8.40117 185.182C-0.930827 198.523 -1.87183 201.935 2.56017 206.366L5.01416 208.821H87.7262C133.218 208.821 170.251 208.635 170.022 208.407C169.792 208.18 155.43 201.392 138.105 193.322C120.78 185.253 91.7412 171.714 73.5742 163.236C55.4072 154.758 39.6442 147.821 38.5462 147.821C37.4482 147.821 35.5692 148.508 34.3712 149.347ZM56.7152 242.7C55.5422 243.995 53.8842 251.273 51.3692 266.16C47.8312 287.102 47.7772 287.801 49.5462 289.755C52.5582 293.084 54.5002 293.033 62.3192 289.421C66.4292 287.523 80.1002 281.154 92.6992 275.268C105.297 269.382 126.604 259.437 140.048 253.167C153.492 246.898 164.704 241.555 164.965 241.295C165.225 241.034 141.358 240.821 111.927 240.821C60.8382 240.821 58.3382 240.906 56.7152 242.7ZM146.605 281.908C131.205 289.062 117.967 295.548 117.186 296.322C115.962 297.537 116.215 299.415 119.031 310.025C120.826 316.788 122.757 322.884 123.322 323.571C125.764 326.541 128.758 324.854 135.695 316.598C169.114 276.829 175.749 268.753 174.914 268.861C174.744 268.883 162.005 274.754 146.605 281.908ZM183.805 302.051C177.099 310.177 174.185 314.463 174.576 315.624C174.89 316.557 176.719 319.009 178.64 321.071C181.986 324.664 184.43 325.722 185.476 324.03C186.439 322.472 194.169 292.4 193.89 291.298C193.733 290.68 189.195 295.518 183.805 302.051Z" fill="black"/>
</svg>
